<svg id="Capa_1" data-name="Capa 1" xmlns="http://www.w3.org/2000/svg" xmlns:xlink="http://www.w3.org/1999/xlink" viewBox="0 0 24 24"><defs><style>.cls-1{fill:none;}.cls-2{clip-path:url(#clip-path);}.cls-3{fill:#0082bc;}</style><clipPath id="clip-path"><rect class="cls-1" width="24" height="24"/></clipPath></defs><title>ic_mail</title><g class="cls-2"><path class="cls-3" d="M20.46,4H3.54A2.12,2.12,0,0,0,1.43,6.14V17.86A2.12,2.12,0,0,0,3.54,20H20.46a2.12,2.12,0,0,0,2.11-2.11V6.14A2.12,2.12,0,0,0,20.46,4ZM12,12.88,3.66,5.65H20.34ZM3.05,7.27l8.42,7.3a.84.84,0,0,0,.53.19.86.86,0,0,0,.53-.19L21,7.27V17.86a.49.49,0,0,1-.49.49H3.54a.49.49,0,0,1-.49-.49Z"/></g></svg>