<svg id="Capa_1" data-name="Capa 1" xmlns="http://www.w3.org/2000/svg" xmlns:xlink="http://www.w3.org/1999/xlink" viewBox="0 0 24 24"><defs><style>.cls-1{fill:none;}.cls-2{clip-path:url(#clip-path);}.cls-3{fill:#0082bc;}</style><clipPath id="clip-path"><rect class="cls-1" width="24" height="24"/></clipPath></defs><title>ic_world</title><g class="cls-2"><path class="cls-3" d="M19.55,4.45a10.68,10.68,0,1,0,0,15.1A10.68,10.68,0,0,0,19.55,4.45ZM19.1,18a10.55,10.55,0,0,0-1.59-1.18,17.32,17.32,0,0,0,.64-4.17h3.14A9.2,9.2,0,0,1,19.1,18ZM2.71,12.68H5.85a17.32,17.32,0,0,0,.64,4.17A10.55,10.55,0,0,0,4.9,18,9.2,9.2,0,0,1,2.71,12.68ZM4.9,6A10.55,10.55,0,0,0,6.49,7.15a17.32,17.32,0,0,0-.64,4.17H2.71A9.2,9.2,0,0,1,4.9,6ZM11.32,7.3a9.26,9.26,0,0,1-3.17-.81C8.73,5,9.79,3.23,11.32,2.78Zm0,1.36v2.66H7.21a15.81,15.81,0,0,1,.52-3.53A10.39,10.39,0,0,0,11.32,8.66Zm0,4v2.66a10.39,10.39,0,0,0-3.59.87,15.81,15.81,0,0,1-.52-3.53Zm0,4v4.52C9.79,20.77,8.73,19,8.15,17.51A9.26,9.26,0,0,1,11.32,16.7Zm1.36,0a9.26,9.26,0,0,1,3.17.81c-.58,1.48-1.64,3.26-3.17,3.71Zm0-1.36V12.68h4.11a15.81,15.81,0,0,1-.52,3.53,10.39,10.39,0,0,0-3.59-.87Zm0-4V8.66a10.39,10.39,0,0,0,3.59-.87,15.81,15.81,0,0,1,.52,3.53Zm0-4V2.78c1.53.45,2.59,2.23,3.17,3.71A9.26,9.26,0,0,1,12.68,7.3Zm3.06-3.84A9.31,9.31,0,0,1,18.15,5a8.57,8.57,0,0,1-1.1.83A10.53,10.53,0,0,0,15.74,3.46ZM7,5.83A8.57,8.57,0,0,1,5.85,5,9.31,9.31,0,0,1,8.26,3.46,10.53,10.53,0,0,0,7,5.83ZM7,18.17a10.53,10.53,0,0,0,1.31,2.37A9.31,9.31,0,0,1,5.85,19,8.57,8.57,0,0,1,7,18.17Zm10.1,0a8.57,8.57,0,0,1,1.1.83,9.31,9.31,0,0,1-2.41,1.54,10.53,10.53,0,0,0,1.31-2.37Zm1.1-6.85a17.32,17.32,0,0,0-.64-4.17A10.55,10.55,0,0,0,19.1,6a9.2,9.2,0,0,1,2.19,5.35Z"/></g></svg>